<svg width="133" height="50" viewBox="0 0 133 50" fill="none" xmlns="http://www.w3.org/2000/svg">
<path d="M30.2922 37.3007C27.0752 37.3007 25.4441 35.7325 25.4441 32.641C25.4441 29.7286 27.3471 27.802 30.2468 27.802C31.6514 27.802 32.2404 28.026 32.6935 28.2052L32.8748 28.2501V30.2215H32.2404C31.9233 29.3702 31.4702 28.6533 30.1562 28.6533C27.9814 28.6533 26.7127 30.0423 26.7127 32.417C26.7127 34.7916 28.072 36.1806 30.4281 36.1806C31.5608 36.1806 32.1498 35.7773 32.5576 35.6877L32.8748 36.4494C32.9201 36.4942 31.9233 37.3007 30.2922 37.3007Z" fill="#003C7D"/>
<path d="M18.7836 22.7839H11.6701C11.6248 22.6046 11.6248 22.291 11.6248 22.1118L12.5309 21.8877C12.8481 21.8429 13.0746 21.4845 13.0746 21.1261L13.12 19.1994V15.1221C13.12 14.8085 12.984 14.4053 12.7122 14.2708L11.806 14.0468C11.806 13.9124 11.806 13.6436 11.8513 13.5092H15.3401C15.3854 13.6884 15.3854 13.9124 15.3854 14.0916L14.7511 14.2708C14.3433 14.2708 14.2074 14.3157 14.2074 14.7637V19.1994L14.2527 21.8877L16.7447 21.8429C17.5602 21.8429 18.1039 21.2605 18.3305 20.5436L18.9195 20.678L18.7836 22.7839Z" fill="#003C7D"/>
<path fill-rule="evenodd" clip-rule="evenodd" d="M22.4989 25.3377V11H36.9978V25.3377H22.4989ZM33.5543 14.8981C33.5543 14.4948 33.6902 14.4052 33.8714 14.3604L34.4605 14.0468C34.4605 13.8675 34.4605 13.6883 34.4152 13.5091H30.9717V14.0468L31.5607 14.226C32.1497 14.4052 32.2856 14.7188 32.2856 15.1221V19.065C32.2856 21.1708 31.3341 21.8877 29.9296 21.8877C28.7968 21.8877 27.4829 21.2604 27.4829 19.4234V14.6292C27.4829 14.4052 27.5735 14.2708 27.8 14.226L28.5703 14.0468C28.6156 13.8675 28.6156 13.6435 28.5703 13.4643H25.0362C24.9909 13.6435 24.9909 13.8675 24.9909 14.002L25.8064 14.3156C26.0783 14.4052 26.2142 14.674 26.2142 14.9877V19.6922C26.2142 22.2909 28.1172 22.963 29.8842 22.963C31.5607 22.963 33.5543 22.0221 33.5543 19.3338V14.8981Z" fill="#003C7D"/>
<path fill-rule="evenodd" clip-rule="evenodd" d="M8 39.6755V25.3378H22.4989V39.6755H8ZM17.3337 36.9871H20.4147C20.4494 36.9358 20.4708 36.8516 20.4916 36.7698C20.5252 36.6376 20.5573 36.5114 20.6413 36.5391L20.0976 36.2254C19.871 36.091 19.6898 35.867 19.6445 35.5534L19.1914 29.8183C19.1008 29.191 19.4179 28.9222 19.6445 28.7878L20.2335 28.5637C20.2335 28.3845 20.2335 28.2501 20.1882 28.0709H17.9227L15.3401 33.7612H15.2042L12.9387 28.0709H10.5827C10.5374 28.2501 10.5374 28.4741 10.5374 28.6085L11.3076 28.8326C11.4889 28.967 11.6701 29.2358 11.6248 29.5495L11.0358 35.2397C10.9905 35.5982 10.7186 36.0014 10.4014 36.1806L9.94834 36.4047C9.91814 36.5242 9.92821 36.6436 9.93827 36.7631C9.94331 36.8229 9.94834 36.8826 9.94834 36.9423H13.12C13.1653 36.8527 13.1653 36.4943 13.1653 36.3599L11.9872 36.0014C11.8513 35.9566 11.806 35.8222 11.8513 35.5982L12.3044 30.5352V29.9703L14.5699 35.3293H15.3854L17.968 29.9527H18.0587L18.104 30.6248L18.2399 34.8813C18.2852 35.0605 18.2852 35.1949 18.2852 35.3741C18.2852 35.7774 18.2399 36.1358 17.8321 36.2703L17.2884 36.4495C17.2884 36.5119 17.2982 36.5935 17.3086 36.6811C17.3207 36.7822 17.3337 36.8911 17.3337 36.9871Z" fill="#003C7D"/>
<path d="M88.4235 34.4332C86.2487 34.4332 85.1613 33.3578 85.1613 31.3416C85.1613 29.3701 86.4299 28.1156 88.3782 28.1156C89.3297 28.1156 89.6922 28.2948 90.0093 28.4292L90.1452 28.474V29.7734H89.7375C89.5562 29.2357 89.2391 28.6981 88.3329 28.6981C86.883 28.6981 86.0221 29.5942 86.0221 31.2072C86.0221 32.8202 86.9283 33.7163 88.5141 33.7163C89.2391 33.7163 89.6468 33.4922 89.9187 33.4026L90.1452 33.9403C90.2359 33.9403 89.5109 34.4332 88.4235 34.4332Z" fill="#003C7D"/>
<path fill-rule="evenodd" clip-rule="evenodd" d="M56.8431 33.761C55.8463 33.761 55.1214 33.5818 55.0761 32.0136L58.2477 32.0584V31.8344C58.2477 30.4454 57.7493 29.5493 56.4353 29.5493C55.1214 29.5493 54.2605 30.6694 54.2605 32.1032C54.2605 34.0747 55.1214 34.4779 56.6166 34.4779C57.2509 34.4779 57.8852 34.2987 58.2024 34.1195L58.0665 33.6266C57.704 33.7162 57.2056 33.761 56.8431 33.761ZM55.076 31.5656C55.1666 30.535 55.7103 29.9974 56.3899 29.9974C57.1149 29.9974 57.3867 30.535 57.3867 31.5656H55.076Z" fill="#003C7D"/>
<path fill-rule="evenodd" clip-rule="evenodd" d="M62.2349 33.7162C62.2349 34.0298 62.3255 34.4331 62.7333 34.4331C63.2317 34.4331 63.8207 34.1643 64.002 34.0746L63.9566 33.7162H63.0505L63.0052 31.9688V27.9811C63.0052 27.7123 62.8692 27.6675 62.6427 27.6675C62.352 27.6675 61.9691 27.7358 61.6583 27.7913C61.5332 27.8136 61.4198 27.8338 61.3287 27.8467V28.2499H62.2349V29.6389C62.0084 29.5493 61.6912 29.5045 61.2834 29.5045C60.0148 29.5045 58.9727 30.535 58.9727 32.148C58.9727 33.9402 59.9241 34.4331 60.8303 34.4331C61.4647 34.4331 61.8724 34.1194 62.2349 33.7162ZM62.2065 30.1516C62.2489 30.1608 62.2884 30.1693 62.3255 30.1767V31.8793L62.2802 33.2682C62.247 33.2847 62.2142 33.3011 62.1816 33.3174C61.8588 33.4788 61.5632 33.6267 61.1928 33.6267C60.3773 33.6267 59.8789 33.2682 59.8789 32.1481C59.8789 30.9384 60.1507 30.0422 61.2834 30.0422C61.7002 30.0422 61.9902 30.1049 62.2065 30.1516Z" fill="#003C7D"/>
<path d="M67.1737 34.3435H64.6364C64.6364 34.2091 64.5911 34.0299 64.6364 33.985L65.1801 33.8058C65.316 33.761 65.4972 33.4922 65.4972 33.313V32.0136V30.087H64.5911V29.6837C64.9082 29.6389 65.4972 29.5045 65.905 29.5045C66.1316 29.5045 66.2675 29.5493 66.2675 29.8182V31.9688V33.5818C66.2675 33.7162 66.3128 33.761 66.4034 33.761L67.1737 33.8954C67.219 33.985 67.219 34.2539 67.1737 34.3435Z" fill="#003C7D"/>
<path d="M69.4391 34.4331C68.7595 34.4331 68.3064 34.2987 67.8533 34.1195L67.8986 32.7305H68.3064C68.3064 33.313 68.7141 33.9402 69.4391 33.9402C69.9828 33.9402 70.4812 33.761 70.4812 33.2682C70.4812 32.8649 70.1187 32.6857 69.3485 32.3721C68.6688 32.148 67.9439 31.7 67.9439 30.8039C67.9439 29.863 68.7141 29.5045 69.6203 29.5045C70.1187 29.5045 70.5718 29.6389 71.0249 29.8182L70.889 31.0279L70.5718 30.9831C70.5265 30.4454 70.0281 30.087 69.4844 30.087C68.9407 30.087 68.6235 30.4006 68.6235 30.6695C68.6235 31.2071 69.1672 31.3863 69.7109 31.6104C70.3906 31.924 71.1608 32.2824 71.1608 33.0889C71.3421 34.1195 70.3453 34.4331 69.4391 34.4331Z" fill="#003C7D"/>
<path d="M75.4198 30.7591C75.1932 30.535 74.7401 30.087 74.287 30.087C73.3355 30.087 72.8825 30.5799 72.8825 31.924C72.8825 32.9993 73.1996 33.761 74.5136 33.761C74.8761 33.761 75.4198 33.6266 75.601 33.5818L75.7369 34.0747C75.5557 34.2091 75.0573 34.4331 74.287 34.4331C72.52 34.4331 72.0669 33.7162 72.0669 31.924C72.0669 30.6695 72.9731 29.4597 74.3777 29.4597C74.7854 29.4597 75.8275 29.4597 75.8275 30.0422C75.8729 30.3558 75.7369 30.5799 75.4198 30.7591Z" fill="#003C7D"/>
<path d="M82.2162 34.3435H80.0413C80.0413 34.209 79.996 34.0298 80.0413 33.9402L80.4038 33.761C80.5397 33.7162 80.6303 33.537 80.6303 33.2233V31.9688V31.2519C80.6303 30.4902 80.4944 30.1766 79.5882 30.1766C79.0445 30.1766 78.2743 30.4006 78.093 30.5798V32.0136L78.1383 33.5818C78.1383 33.8058 78.1383 33.8058 78.3196 33.8954L79.1805 34.0298C79.1805 34.0746 79.1805 34.3883 79.1351 34.4331H76.6431C76.6431 34.2987 76.5978 34.1194 76.6431 34.0746L77.0509 33.8954C77.2322 33.8506 77.3681 33.5818 77.3681 33.3129V32.0584V28.3395H76.4619V27.9363C76.7791 27.8915 77.3681 27.7571 77.7759 27.7571C78.0024 27.7571 78.1383 27.8019 78.1383 28.0707V30.1766C78.5008 29.9525 79.0898 29.5045 79.9507 29.5045C81.2647 29.5045 81.4006 30.1766 81.4006 31.1175V32.0136V33.6266C81.4006 33.761 81.4459 33.8058 81.5818 33.8058L82.2615 33.9402C82.2162 33.9402 82.2162 34.2539 82.2162 34.3435Z" fill="#003C7D"/>
<path fill-rule="evenodd" clip-rule="evenodd" d="M93.4527 33.761C92.4559 33.761 91.731 33.5818 91.6857 32.0136L94.8573 32.0584V31.8344C94.8573 30.4454 94.3589 29.5493 93.0449 29.5493C91.731 29.5493 90.8701 30.6694 90.8701 32.1032C90.8701 34.0747 91.731 34.4779 93.2262 34.4779C93.8605 34.4779 94.4948 34.2987 94.812 34.1195L94.6761 33.6266C94.3136 33.7162 93.8152 33.761 93.4527 33.761ZM91.6857 31.5656C91.7763 30.535 92.32 29.9974 92.9996 29.9974C93.7246 29.9974 93.9964 30.535 93.9964 31.5656H91.6857Z" fill="#003C7D"/>
<path d="M101.291 34.3435H99.1617C99.1617 34.2091 99.1164 34.0299 99.1617 33.9402L99.3883 33.761C99.5695 33.6266 99.6148 33.4474 99.6148 33.2682V31.9688V31.2519C99.6148 30.4902 99.4789 30.1766 98.5727 30.1766C98.029 30.1766 97.3494 30.4006 97.1228 30.5798V32.0136V33.6266C97.1228 33.761 97.1228 33.8058 97.2588 33.8506L98.029 33.9851C98.029 34.0299 98.029 34.3435 97.9837 34.3883H95.6276C95.6276 34.2539 95.5823 34.0747 95.6276 34.0299L96.0354 33.8506C96.2167 33.8058 96.3526 33.4922 96.3526 33.313V32.0136V30.2214H95.4464V29.8182C95.7636 29.7734 96.3526 29.6389 96.7604 29.6389C96.9869 29.6389 97.0775 29.6837 97.0775 29.9526V30.1318C97.44 29.9078 97.9837 29.4597 98.8446 29.4597C100.159 29.4597 100.294 30.1318 100.294 31.0727V31.9688L100.34 33.6266C100.34 33.761 100.34 33.761 100.476 33.761L101.201 33.8954C101.291 33.9851 101.291 34.2539 101.291 34.3435Z" fill="#003C7D"/>
<path d="M104.825 34.2987C104.599 34.4331 104.1 34.4779 103.783 34.4779C102.651 34.4779 102.152 34.1643 102.197 33.0889V30.1766H101.473V29.8629L102.877 28.6084H103.013V29.5493H104.644V30.1318H103.013V31.9688V33.0441C103.013 33.7162 103.33 33.8058 103.919 33.8058C104.146 33.8058 104.463 33.761 104.689 33.6714L104.825 34.2987Z" fill="#003C7D"/>
<path d="M108.813 30.3558C108.677 30.311 108.495 30.2214 108.269 30.2214C107.68 30.2214 107.227 30.3558 107 30.5798V31.8792L107.045 33.4922C107.045 33.6266 107.045 33.7162 107.181 33.7162L108.088 33.8506C108.088 33.8954 108.088 34.2091 108.042 34.2539H105.505C105.505 34.1195 105.46 33.9402 105.46 33.8954L105.867 33.6714C106.003 33.6266 106.185 33.3578 106.185 32.9993V31.8792V30.087H105.278V29.6837C105.596 29.6389 106.185 29.5045 106.592 29.5045C106.819 29.5045 106.955 29.5493 106.955 29.8182V30.1766C107.181 29.8182 107.725 29.4597 108.359 29.4597C108.677 29.4597 108.858 29.5045 108.948 29.5045L108.813 30.3558Z" fill="#003C7D"/>
<path d="M114.839 34.0747C114.657 34.2091 114.114 34.4331 113.615 34.4331C113.298 34.4331 113.026 34.2987 112.936 33.761C112.573 34.1195 112.165 34.4779 111.305 34.4779C110.036 34.4779 109.9 33.8954 109.9 33.0441V30.1318H109.13V29.7285C109.447 29.6837 109.991 29.5493 110.398 29.5493C110.625 29.5493 110.761 29.5941 110.761 29.863V31.9688V32.8201C110.761 33.3578 110.806 33.8506 111.531 33.8506C112.03 33.8506 112.483 33.537 112.936 33.1785L112.981 31.9688V30.1766H112.075V29.7733C112.392 29.7285 112.981 29.5941 113.389 29.5941C113.615 29.5941 113.751 29.6389 113.751 29.9078V32.0136V33.761H114.703L114.839 34.0747Z" fill="#003C7D"/>
<path d="M123.946 34.3435H121.771C121.726 34.2091 121.726 34.0298 121.726 33.9402L122.043 33.761C122.179 33.7162 122.269 33.537 122.269 33.2682V31.9688V31.2519C122.269 30.4902 122.224 30.1766 121.318 30.1766C120.819 30.1766 120.23 30.3558 119.913 30.535C119.913 30.7143 119.913 30.8935 119.913 31.1175V32.0136V33.6266C119.913 33.761 119.959 33.8058 120.049 33.8058L120.819 33.9402C120.819 33.985 120.819 34.2987 120.774 34.4331H118.554C118.554 34.2987 118.509 34.1195 118.509 34.0298L118.826 33.8506C118.962 33.8058 119.007 33.6266 119.052 33.4922V32.0584V31.3415C119.052 30.5798 119.007 30.2662 118.101 30.2662C117.557 30.2662 116.968 30.4902 116.696 30.6694V32.1032L116.742 33.6714C116.742 33.8058 116.742 33.8954 116.878 33.8954L117.603 34.0298C117.603 34.0747 117.603 34.3883 117.557 34.5227H115.246C115.201 34.3883 115.201 34.2091 115.201 34.1643L115.564 33.985C115.745 33.9402 115.926 33.761 115.926 33.4474V32.148V30.3558H115.02V29.9526C115.337 29.9078 115.926 29.7733 116.334 29.7733C116.56 29.7733 116.696 29.8181 116.696 30.087V30.2214C117.059 29.9974 117.557 29.5493 118.373 29.5493C119.143 29.5493 119.505 29.7733 119.641 30.1318C120.004 29.9078 120.548 29.5493 121.408 29.5493C122.722 29.5493 122.858 30.2214 122.858 31.1623V32.0584L122.904 33.6714C122.904 33.8506 122.904 33.8506 123.085 33.8506L123.765 33.985C124.036 33.985 124.036 34.2539 123.946 34.3435Z" fill="#003C7D"/>
<ellipse cx="65.8143" cy="28.0259" rx="0.543709" ry="0.537664" fill="#003C7D"/>
<path d="M53.2184 33.7609C53.0824 33.7161 52.9012 33.5369 52.9012 33.3577L52.3575 29.37C52.3122 29.0116 52.4934 28.7876 52.6746 28.6531L53.0824 28.5187C53.0824 28.3843 53.0824 28.2947 53.0371 28.1603H51.3607L49.6843 32.4616H49.6389L48.0078 28.2051H46.2408C46.2408 28.3395 46.1955 28.5187 46.1955 28.5635L46.7392 28.7427C46.9204 28.7876 47.0563 29.0564 46.9657 29.2356L46.3767 33.1337C46.3314 33.4473 46.1502 33.6713 45.8783 33.8057L45.6064 33.9402C45.6064 34.0746 45.6064 34.1642 45.6518 34.2986H47.9625C48.0078 34.1642 48.0078 33.9402 48.0078 33.8954L47.1016 33.7161C46.9657 33.7161 46.9657 33.5817 46.9657 33.4025L47.5094 29.8629V29.4596H47.5547L49.1859 33.8954L49.7749 33.7161L51.4513 29.5492H51.4966V30.0421L51.8591 32.9544C51.8591 33.0889 51.8591 33.1785 51.8591 33.3129C51.8591 33.6265 51.8138 33.8506 51.4966 33.985L51.1341 34.1194C51.1341 34.2538 51.1341 34.3434 51.1795 34.4778H53.4902C53.4902 34.3434 53.5355 34.1642 53.5355 34.0746L53.2184 33.7609Z" fill="#003C7D"/>
<path d="M50.4092 23.0526H45.9236C45.9236 22.9182 45.8783 22.739 45.8783 22.6494L46.422 22.4702C46.6485 22.4254 46.7392 22.1565 46.7392 21.9773V20.678V17.9896C46.7392 17.7656 46.6939 17.4968 46.5126 17.452L45.9689 17.2727C45.9689 17.2279 45.9689 17.0487 46.0142 16.9143H48.325C48.325 17.0487 48.3703 17.2279 48.3703 17.2727L47.9625 17.4072C47.736 17.452 47.6 17.452 47.6 17.7656V20.678L47.6453 22.4702L49.0952 22.4254C49.6389 22.4254 50.0014 22.0221 50.1827 21.5741L50.5904 21.6189L50.4092 23.0526Z" fill="#003C7D"/>
<path fill-rule="evenodd" clip-rule="evenodd" d="M53.6261 22.4701C52.6293 22.4701 51.9043 22.2909 51.859 20.7227C51.859 20.7227 55.0306 20.7227 55.0306 20.7675V20.5435C55.0306 19.1545 54.5322 18.2584 53.2183 18.2584C51.9043 18.2584 51.0435 19.3786 51.0435 20.8123C51.0435 22.7838 51.9043 23.187 53.3995 23.187C54.0339 23.187 54.6682 23.0078 54.9853 22.8286L54.8494 22.3357C54.4869 22.4253 53.9885 22.4701 53.6261 22.4701ZM51.9497 20.1851C51.995 19.2442 52.5387 18.7065 53.2184 18.7065C53.9433 18.7065 54.1698 19.2442 54.2605 20.1851H51.9497Z" fill="#003C7D"/>
<path d="M55.8462 22.6943L56.3899 22.515C56.5258 22.4702 56.7071 22.2014 56.7071 22.0222V20.7228V18.9306H55.8009V18.5274C56.1181 18.4826 56.7071 18.3481 57.1149 18.3481C57.3414 18.3481 57.4773 18.3929 57.4773 18.6618V20.8124V22.4254C57.4773 22.5598 57.5226 22.6046 57.6133 22.6046L58.3835 22.7391C58.3835 22.7839 58.3835 23.0975 58.3382 23.1423H55.8462C55.8462 22.9631 55.8462 22.8287 55.8462 22.6943Z" fill="#003C7D"/>
<path fill-rule="evenodd" clip-rule="evenodd" d="M62.2349 22.4254C62.2349 22.7391 62.3255 23.1423 62.7333 23.1423C63.2317 23.1423 63.8207 22.8735 63.9113 22.7839L63.866 22.4254H62.9598L62.9145 20.678V16.7351C62.9145 16.4663 62.7786 16.4215 62.5521 16.4215C62.2613 16.4215 61.8785 16.4898 61.5677 16.5453C61.4426 16.5676 61.3291 16.5879 61.2381 16.6007V16.9592H62.1443V18.3481C61.9177 18.2585 61.6006 18.2137 61.1928 18.2137C60.0148 18.2137 58.9727 19.2442 58.9727 20.8572C58.9727 22.6494 59.9241 23.1423 60.8303 23.1423C61.4647 23.1423 61.8724 22.8287 62.2349 22.4254ZM62.2065 18.9056C62.2489 18.9148 62.2884 18.9233 62.3255 18.9307V20.7229L62.2802 22.0222C62.247 22.0387 62.2142 22.0551 62.1816 22.0714C61.8588 22.2328 61.5632 22.3807 61.1928 22.3807C60.3773 22.3807 59.8789 22.0222 59.8789 20.9021C59.8789 19.6924 60.1507 18.7963 61.2834 18.7963C61.7002 18.7963 61.9902 18.8589 62.2065 18.9056Z" fill="#003C7D"/>
<path d="M66.1769 23.1422C65.4972 23.1422 65.0442 23.0078 64.5911 22.8286L64.6364 21.4396H65.0442C65.0442 22.0221 65.4519 22.5597 66.1769 22.5597C66.7206 22.5597 67.219 22.3805 67.219 21.8877C67.219 21.4844 66.8565 21.3052 66.0863 20.9916C65.4066 20.7675 64.6817 20.3195 64.6817 19.4234C64.6817 18.5273 65.5426 18.1688 66.4487 18.1688C66.9471 18.1688 67.4002 18.3032 67.8533 18.4825L67.7174 19.6026L67.4002 19.5578C67.3549 19.0201 66.8565 18.6617 66.3128 18.6617C65.7691 18.6617 65.4519 18.9753 65.4519 19.2442C65.4519 19.7818 65.9956 19.961 66.5394 20.1851C67.219 20.4987 67.9892 20.8571 67.9892 21.6636C67.9892 22.8286 67.0831 23.1422 66.1769 23.1422Z" fill="#003C7D"/>
<path d="M76.8698 17.4072C76.7339 17.452 76.6433 17.452 76.6433 17.7656V20.7676C76.6433 22.5598 75.3293 23.2319 74.1513 23.2319C72.9279 23.2319 71.6593 22.8286 71.6593 21.0364V17.9448C71.6593 17.7656 71.5234 17.5416 71.4327 17.452L70.889 17.2727C70.889 17.2279 70.889 17.0487 70.9343 16.9143H73.2904C73.2904 17.0487 73.2904 17.2279 73.2904 17.3176L72.792 17.452C72.6108 17.4968 72.5655 17.5864 72.5655 17.7656V20.9916C72.5655 22.2461 73.4263 22.6494 74.1966 22.6494C75.1481 22.6494 75.8277 22.1565 75.8277 20.8124V18.0792C75.8277 17.7656 75.7824 17.5864 75.3293 17.4968L74.9668 17.3624C74.9668 17.3176 74.9668 17.1383 74.9668 17.0039H77.2776C77.2776 17.1383 77.2776 17.2279 77.2776 17.3624L76.8698 17.4072Z" fill="#003C7D"/>
<path d="M83.4847 23.0526H81.3552C81.3552 22.9182 81.3099 22.739 81.3552 22.6493L81.5817 22.4701C81.763 22.3357 81.8083 22.1565 81.8083 21.9773V20.6779V19.961C81.8083 19.1993 81.6724 18.8857 80.8568 18.8857C80.3131 18.8857 79.6334 19.1097 79.4069 19.2889V20.7227V22.3357C79.4069 22.4701 79.4069 22.5149 79.5428 22.5597L80.3131 22.6941C80.3131 22.739 80.3131 23.0526 80.2678 23.0974H77.9117C77.9117 22.963 77.8664 22.7838 77.9117 22.739L78.3195 22.5597C78.5007 22.5149 78.6366 22.2013 78.6366 22.0669V20.7675V18.9753H77.7305V18.5721C78.0476 18.5273 78.6366 18.3928 79.0444 18.3928C79.271 18.3928 79.3616 18.4376 79.3616 18.7065V18.9305C79.7241 18.7065 80.2678 18.2584 81.1286 18.2584C82.4426 18.2584 82.5785 18.9305 82.5785 19.8714V20.7675L82.6238 22.4253C82.6238 22.5597 82.6238 22.5597 82.7598 22.5597L83.4847 22.6941C83.53 22.6941 83.53 22.963 83.4847 23.0526Z" fill="#003C7D"/>
<path d="M84.1192 22.6941L84.6629 22.5149C84.7988 22.4701 84.98 22.2013 84.98 22.0221V20.7227V18.9305H84.0739V18.5272C84.391 18.4824 84.98 18.348 85.3878 18.348C85.6144 18.348 85.7503 18.3928 85.7503 18.6617V20.8123V22.4253C85.7503 22.5597 85.7956 22.6045 85.8862 22.6045L86.6565 22.7389C86.6565 22.7837 86.6565 23.0974 86.6112 23.1422H84.1192C84.1192 22.963 84.1192 22.8286 84.1192 22.6941Z" fill="#003C7D"/>
<path d="M87.472 19.2441C87.4267 19.0649 87.1549 18.8409 86.9736 18.7065C86.9736 18.5721 86.9736 18.3928 86.9736 18.3032H88.9219C88.9219 18.4376 88.9219 18.6617 88.8766 18.7961H88.2876L89.4203 22.2013L90.5077 19.4682C90.553 19.4234 90.553 19.2889 90.553 19.2441C90.553 19.0649 90.5077 18.9305 90.3265 18.8857L90.1 18.7513C90.1 18.6169 90.1 18.4376 90.1453 18.348H91.7311C91.7311 18.4824 91.7311 18.6617 91.7311 18.7065C91.5952 18.8409 91.3686 18.9305 91.1874 19.4234L89.6922 23.1422L89.1032 23.3214L87.472 19.2441Z" fill="#003C7D"/>
<path fill-rule="evenodd" clip-rule="evenodd" d="M94.5403 22.4701C93.5435 22.4701 92.8185 22.2909 92.7732 20.7227C92.7732 20.7227 95.8995 20.7227 95.9448 20.7675V20.5435C95.9448 19.1545 95.4464 18.2584 94.1325 18.2584C92.8185 18.2584 91.9576 19.3786 91.9576 20.8123C91.9576 22.7838 92.8185 23.187 94.3137 23.187C94.948 23.187 95.5824 23.0078 95.8995 22.8286L95.7636 22.3357C95.4011 22.4253 94.9027 22.4701 94.5403 22.4701ZM92.7731 20.1851C92.8184 19.2442 93.3621 18.7065 94.0417 18.7065C94.812 18.7065 95.0838 19.2442 95.0838 20.1851H92.7731Z" fill="#003C7D"/>
<path d="M100.113 19.0648C99.9773 19.02 99.796 18.9304 99.5695 18.9304C98.9805 18.9304 98.5274 19.0648 98.3008 19.2888V20.5882L98.3462 22.1564C98.3462 22.2908 98.3462 22.3804 98.4821 22.3804L99.3883 22.5148C99.3883 22.5596 99.3883 22.8733 99.343 22.9181H96.8056C96.8056 22.7837 96.7603 22.6044 96.7603 22.5596L97.1681 22.3356C97.304 22.2908 97.4853 22.022 97.4853 21.6635V20.5434V18.7512H96.5791V18.3479C96.8963 18.3031 97.4853 18.1687 97.8931 18.1687C98.1196 18.1687 98.2555 18.2135 98.2555 18.4823V18.8408C98.4821 18.4823 99.0258 18.1239 99.6601 18.1239C99.9773 18.1239 100.159 18.1687 100.249 18.1687L100.113 19.0648Z" fill="#003C7D"/>
<path d="M102.288 23.1421C101.608 23.1421 101.155 23.0077 100.702 22.8285L100.747 21.4395H101.155C101.155 22.022 101.563 22.5596 102.288 22.5596C102.832 22.5596 103.33 22.3804 103.33 21.8875C103.33 21.4843 102.968 21.3051 102.197 20.9914C101.518 20.7674 100.793 20.3194 100.793 19.4233C100.793 18.5271 101.563 18.1239 102.469 18.1239C102.968 18.1239 103.421 18.2583 103.874 18.4375L103.738 19.5577L103.421 19.5129C103.375 18.9752 102.877 18.6168 102.333 18.6168C101.79 18.6168 101.472 18.9304 101.472 19.1992C101.472 19.7369 102.016 19.9161 102.56 20.1401C103.239 20.4538 104.01 20.8122 104.01 21.6187C104.1 22.8285 103.194 23.1421 102.288 23.1421Z" fill="#003C7D"/>
<path d="M104.916 22.6941L105.46 22.5149C105.596 22.4701 105.777 22.2013 105.777 22.0221V20.7227V18.9305H104.871V18.5272C105.188 18.4824 105.777 18.348 106.185 18.348C106.411 18.348 106.547 18.3928 106.547 18.6617V20.8123V22.4253C106.547 22.5597 106.592 22.6045 106.683 22.6045L107.453 22.7389C107.453 22.7837 107.453 23.0974 107.408 23.1422H104.916C104.916 22.963 104.916 22.8286 104.916 22.6941Z" fill="#003C7D"/>
<path d="M111.395 23.0078C111.169 23.1422 110.67 23.187 110.353 23.187C109.22 23.187 108.767 22.8734 108.767 21.798V18.9305H108.042V18.6169L109.447 17.3623H109.583V18.3032H111.214V18.8857H109.583V20.6779V21.7532C109.583 22.4253 109.9 22.5149 110.489 22.5149C110.716 22.5149 111.033 22.4701 111.259 22.3805L111.395 23.0078Z" fill="#003C7D"/>
<path fill-rule="evenodd" clip-rule="evenodd" d="M114.658 22.4253C114.658 22.739 114.748 23.1422 115.337 23.1422C115.609 23.1422 116.334 22.8734 116.47 22.7838L116.425 22.4253H115.473L115.428 20.6779V19.4682C115.428 18.2136 114.34 18.2136 113.661 18.2136C113.208 18.2136 112.664 18.348 112.166 18.5273L112.301 19.0201C112.573 18.8857 113.072 18.8409 113.434 18.8409C114.295 18.8409 114.658 19.0201 114.658 19.737V20.4539C114.658 20.4539 114.069 20.5435 113.525 20.5883C112.709 20.6779 111.848 21.126 111.848 22.0669C111.848 22.8286 112.301 23.187 112.981 23.187C113.887 23.187 114.476 22.6045 114.658 22.4253ZM113.57 21.0364C113.978 20.902 114.657 20.8572 114.657 20.8572V22.0222C114.657 22.0222 113.887 22.4254 113.344 22.4254C112.845 22.4254 112.664 22.1118 112.664 21.8877C112.664 21.4397 112.981 21.1709 113.57 21.0364Z" fill="#003C7D"/>
<path d="M116.968 22.6943L117.512 22.515C117.648 22.4702 117.829 22.2014 117.829 22.0222V20.7228V18.9306H116.923V18.5274C117.24 18.4826 117.829 18.3481 118.237 18.3481C118.463 18.3481 118.599 18.3929 118.599 18.6618V20.8124V22.4254C118.599 22.5598 118.645 22.6046 118.735 22.6046L119.505 22.7391C119.505 22.7839 119.505 23.0975 119.46 23.1423H116.968C117.013 22.9631 116.968 22.8287 116.968 22.6943Z" fill="#003C7D"/>
<path d="M123.583 19.0648C123.447 19.02 123.266 18.9304 123.04 18.9304C122.451 18.9304 121.998 19.0648 121.771 19.2888V20.5882L121.816 22.1564C121.816 22.2908 121.816 22.3804 121.952 22.3804L122.858 22.5148C122.858 22.5596 122.858 22.8733 122.813 22.9181H120.276C120.276 22.7837 120.231 22.6044 120.231 22.5596L120.638 22.3356C120.774 22.2908 120.955 22.022 120.955 21.6635V20.5434V18.7512H120.049V18.3479C120.366 18.3031 120.955 18.1687 121.363 18.1687C121.59 18.1687 121.726 18.2135 121.726 18.4823V18.8408C121.952 18.4823 122.496 18.1239 123.13 18.1239C123.447 18.1239 123.629 18.1687 123.719 18.1687L123.583 19.0648Z" fill="#003C7D"/>
<ellipse cx="57.0697" cy="16.8695" rx="0.589013" ry="0.582469" fill="#003C7D"/>
<ellipse cx="85.3424" cy="16.8695" rx="0.589019" ry="0.582469" fill="#003C7D"/>
<ellipse cx="106.139" cy="16.8695" rx="0.589019" ry="0.582469" fill="#003C7D"/>
<ellipse cx="118.237" cy="16.8695" rx="0.589013" ry="0.582469" fill="#003C7D"/>
</svg>
